<svg width="68" height="80" viewBox="-30 -24 128 128" fill="none" xmlns="http://www.w3.org/2000/svg">
<path d="M49.3025 56L56.6025 4C56.6025 4 43.5774 25.2356 30.7025 46L49.3025 56Z" fill="#62778C"/>
<path d="M20.3025 23L12.3025 76C12.3025 76 25.2275 54.7644 38.1025 34L20.3025 23Z" fill="#62778C"/>
<path d="M1.18107 71.7252C0.373134 74.9389 2.32339 78.1991 5.5371 79.007C8.7508 79.8149 12.011 77.8647 12.8189 74.651L1.18107 71.7252ZM21.8889 7L27.5011 4.87809C26.5391 2.3337 23.9858 0.754818 21.2797 1.03101C18.5736 1.3072 16.3918 3.36935 15.9637 6.05562L21.8889 7ZM46.9136 73.1881L41.3013 75.31C42.2633 77.8544 44.8167 79.4333 47.5228 79.1571C50.2289 78.8809 52.4106 76.8187 52.8388 74.1325L46.9136 73.1881ZM67.6214 8.46291C68.4293 5.24921 66.4791 1.98902 63.2654 1.18109C60.0517 0.373147 56.7915 2.32341 55.9835 5.53711L67.6214 8.46291ZM7 73.1881C12.8189 74.651 12.819 74.6507 12.8191 74.6502C12.8192 74.6499 12.8194 74.6492 12.8196 74.6484C12.82 74.6469 12.8205 74.6446 12.8213 74.6416C12.8228 74.6356 12.825 74.6268 12.8279 74.6151C12.8338 74.5918 12.8424 74.5573 12.8538 74.5119C12.8767 74.4209 12.9104 74.2862 12.9545 74.11C13.0427 73.7576 13.1721 73.2393 13.3378 72.5733C13.6692 71.2415 14.1457 69.3191 14.7267 66.9533C15.8886 62.2225 17.4699 55.7145 19.1467 48.6078C22.4811 34.4766 26.257 17.714 27.8141 7.94438L15.9637 6.05562C14.4879 15.315 10.8193 31.6465 7.46745 45.852C5.80121 52.9138 4.22892 59.3848 3.07305 64.0911C2.49522 66.4437 2.02172 68.3543 1.6929 69.6758C1.52849 70.3365 1.40027 70.8499 1.31328 71.1976C1.26979 71.3715 1.2366 71.5039 1.21436 71.5926C1.20323 71.6369 1.19485 71.6703 1.18927 71.6925C1.18649 71.7036 1.1844 71.7119 1.18303 71.7174C1.18235 71.7201 1.18184 71.7221 1.18151 71.7234C1.18135 71.7241 1.18124 71.7245 1.18116 71.7248C1.18109 71.7251 1.18107 71.7252 7 73.1881ZM16.2766 9.12191L41.3013 75.31L52.5258 71.0662L27.5011 4.87809L16.2766 9.12191ZM61.8025 7.00001C55.9835 5.53711 55.9835 5.53739 55.9834 5.53785C55.9833 5.53824 55.9831 5.53888 55.9829 5.53966C55.9825 5.54123 55.9819 5.54351 55.9812 5.54651C55.9797 5.5525 55.9775 5.56133 55.9745 5.57297C55.9687 5.59625 55.96 5.63077 55.9486 5.67623C55.9258 5.76715 55.8921 5.90186 55.848 6.07806C55.7598 6.43045 55.6303 6.94882 55.4646 7.61476C55.1332 8.94661 54.6568 10.869 54.0757 13.2348C52.9139 17.9656 51.3326 24.4736 49.6557 31.5803C46.3214 45.7115 42.5455 62.474 40.9884 72.2437L52.8388 74.1325C54.3146 64.8731 57.9831 48.5416 61.335 34.336C63.0013 27.2743 64.5735 20.8033 65.7294 16.097C66.3072 13.7444 66.7807 11.8338 67.1096 10.5123C67.274 9.8516 67.4022 9.3382 67.4892 8.99049C67.5327 8.81664 67.5659 8.68422 67.5881 8.59552C67.5992 8.55117 67.6076 8.51776 67.6132 8.49556C67.616 8.48446 67.6181 8.47617 67.6194 8.47072C67.6201 8.46799 67.6206 8.46597 67.6209 8.46467C67.6211 8.46402 67.6212 8.46358 67.6213 8.46326C67.6214 8.463 67.6214 8.46291 61.8025 7.00001Z" fill="#ADD6FF"/>
</svg>
